<svg width="109" height="30" viewBox="0 0 109 30" fill="none" xmlns="http://www.w3.org/2000/svg">
<path d="M-1.19805e-05 4.41999V-1.28746e-05H4.81999V4.41999H-1.19805e-05ZM-1.19805e-05 29.3V7.69999H4.81999V29.3H-1.19805e-05ZM19.1509 29.9C16.4843 29.9 14.3176 29.3 12.6509 28.1C10.9843 26.9 9.97093 25.2133 9.61093 23.04L14.5309 22.28C14.7843 23.3467 15.3443 24.1867 16.2109 24.8C17.0776 25.4133 18.1709 25.72 19.4909 25.72C20.6509 25.72 21.5443 25.4933 22.1709 25.04C22.8109 24.5733 23.1309 23.94 23.1309 23.14C23.1309 22.6467 23.0109 22.2533 22.7709 21.96C22.5443 21.6533 22.0376 21.36 21.2509 21.08C20.4643 20.8 19.2576 20.4467 17.6309 20.02C15.8176 19.54 14.3776 19.0267 13.3109 18.48C12.2443 17.92 11.4776 17.26 11.0109 16.5C10.5443 15.74 10.3109 14.82 10.3109 13.74C10.3109 12.3933 10.6643 11.22 11.3709 10.22C12.0776 9.21999 13.0643 8.45332 14.3309 7.91999C15.5976 7.37332 17.0909 7.09999 18.8109 7.09999C20.4909 7.09999 21.9776 7.35999 23.2709 7.87999C24.5776 8.39999 25.6309 9.13999 26.4309 10.1C27.2309 11.06 27.7243 12.1867 27.9109 13.48L22.9909 14.36C22.8709 13.44 22.4509 12.7133 21.7309 12.18C21.0243 11.6467 20.0776 11.3467 18.8909 11.28C17.7576 11.2133 16.8443 11.3867 16.1509 11.8C15.4576 12.2 15.1109 12.7667 15.1109 13.5C15.1109 13.9133 15.2509 14.2667 15.5309 14.56C15.8109 14.8533 16.3709 15.1467 17.2109 15.44C18.0643 15.7333 19.3309 16.0933 21.0109 16.52C22.7309 16.96 24.1043 17.4667 25.1309 18.04C26.1709 18.6 26.9176 19.2733 27.3709 20.06C27.8376 20.8467 28.0709 21.8 28.0709 22.92C28.0709 25.0933 27.2776 26.8 25.6909 28.04C24.1176 29.28 21.9376 29.9 19.1509 29.9ZM45.1116 29.3C43.6849 29.5667 42.2849 29.68 40.9116 29.64C39.5516 29.6133 38.3316 29.3667 37.2516 28.9C36.1716 28.42 35.3516 27.6667 34.7916 26.64C34.2982 25.7067 34.0382 24.7533 34.0116 23.78C33.9849 22.8067 33.9716 21.7067 33.9716 20.48V1.69999H38.7716V20.2C38.7716 21.0667 38.7782 21.8267 38.7916 22.48C38.8182 23.1333 38.9582 23.6667 39.2116 24.08C39.6916 24.88 40.4582 25.3267 41.5116 25.42C42.5649 25.5133 43.7649 25.46 45.1116 25.26V29.3ZM30.0516 11.48V7.69999H45.1116V11.48H30.0516ZM58.2025 29.9C56.0425 29.9 54.1558 29.4133 52.5425 28.44C50.9292 27.4667 49.6758 26.1267 48.7825 24.42C47.9025 22.7 47.4625 20.7267 47.4625 18.5C47.4625 16.2333 47.9158 14.2467 48.8225 12.54C49.7292 10.8333 50.9892 9.49999 52.6025 8.53999C54.2158 7.57999 56.0825 7.09999 58.2025 7.09999C60.3758 7.09999 62.2692 7.58665 63.8825 8.55999C65.4958 9.53332 66.7492 10.88 67.6425 12.6C68.5358 14.3067 68.9825 16.2733 68.9825 18.5C68.9825 20.74 68.5292 22.72 67.6225 24.44C66.7292 26.1467 65.4758 27.4867 63.8625 28.46C62.2492 29.42 60.3625 29.9 58.2025 29.9ZM58.2025 25.38C60.1225 25.38 61.5492 24.74 62.4825 23.46C63.4158 22.18 63.8825 20.5267 63.8825 18.5C63.8825 16.4067 63.4092 14.74 62.4625 13.5C61.5158 12.2467 60.0958 11.62 58.2025 11.62C56.9092 11.62 55.8425 11.9133 55.0025 12.5C54.1758 13.0733 53.5625 13.88 53.1625 14.92C52.7625 15.9467 52.5625 17.14 52.5625 18.5C52.5625 20.5933 53.0358 22.2667 53.9825 23.52C54.9425 24.76 56.3492 25.38 58.2025 25.38ZM73.3891 29.3V7.69999H77.6491V12.96L77.1291 12.28C77.3957 11.56 77.7491 10.9067 78.1891 10.32C78.6424 9.71999 79.1824 9.22665 79.8091 8.83999C80.3424 8.47999 80.9291 8.19999 81.5691 7.99999C82.2224 7.78665 82.8891 7.65999 83.5691 7.61999C84.2491 7.56665 84.9091 7.59332 85.5491 7.69999V12.2C84.9091 12.0133 84.1691 11.9533 83.3291 12.02C82.5024 12.0867 81.7557 12.32 81.0891 12.72C80.4224 13.08 79.8757 13.54 79.4491 14.1C79.0357 14.66 78.7291 15.3 78.5291 16.02C78.3291 16.7267 78.2291 17.4933 78.2291 18.32V29.3H73.3891ZM98.795 29.9C96.6083 29.9 94.6883 29.4267 93.035 28.48C91.3817 27.5333 90.0883 26.22 89.155 24.54C88.235 22.86 87.775 20.9267 87.775 18.74C87.775 16.38 88.2283 14.3333 89.135 12.6C90.0417 10.8533 91.3017 9.49999 92.915 8.53999C94.5283 7.57999 96.395 7.09999 98.515 7.09999C100.755 7.09999 102.655 7.62665 104.215 8.67999C105.788 9.71999 106.955 11.1933 107.715 13.1C108.475 15.0067 108.762 17.2533 108.575 19.84H103.795V18.08C103.782 15.7333 103.368 14.02 102.555 12.94C101.742 11.86 100.462 11.32 98.715 11.32C96.7417 11.32 95.275 11.9333 94.315 13.16C93.355 14.3733 92.875 16.1533 92.875 18.5C92.875 20.6867 93.355 22.38 94.315 23.58C95.275 24.78 96.675 25.38 98.515 25.38C99.7017 25.38 100.722 25.12 101.575 24.6C102.442 24.0667 103.108 23.3 103.575 22.3L108.335 23.74C107.508 25.6867 106.228 27.2 104.495 28.28C102.775 29.36 100.875 29.9 98.795 29.9ZM91.355 19.84V16.2H106.215V19.84H91.355Z" fill="black"/>
</svg>
